<?xml version="1.0" standalone="no"?>
<!DOCTYPE svg PUBLIC "-//W3C//DTD SVG 20010904//EN"
 "http://www.w3.org/TR/2001/REC-SVG-20010904/DTD/svg10.dtd">
<svg version="1.0" xmlns="http://www.w3.org/2000/svg"
 width="1024.000000pt" height="1024.000000pt" viewBox="0 0 1024.000000 1024.000000"
 preserveAspectRatio="xMidYMid meet">
<metadata>
Created by potrace 1.14, written by Peter Selinger 2001-2017
</metadata>
<g transform="translate(0.000000,1024.000000) scale(0.100000,-0.100000)"
fill="#000000" stroke="none">
<path d="M8463 9086 c-6 -8 -9 -17 -6 -20 4 -3 1 -6 -5 -6 -6 0 -21 -11 -34
-24 -13 -13 -43 -45 -67 -70 -24 -25 -48 -46 -53 -46 -5 0 -6 -4 -3 -10 3 -5
2 -10 -3 -10 -5 0 -59 -50 -118 -111 -116 -118 -185 -187 -311 -310 -43 -42
-222 -224 -398 -403 -309 -316 -324 -334 -316 -378 3 -15 43 7 78 42 21 21
174 175 340 342 166 166 308 304 315 306 7 2 16 9 20 15 5 8 8 8 8 -3 0 -9 6
-5 17 10 10 14 17 28 15 32 -1 5 1 7 6 7 19 -3 23 2 12 16 -11 13 -10 14 4 9
9 -3 17 -1 17 5 3 26 4 30 13 38 5 5 6 2 2 -7 -4 -8 -1 -6 6 5 7 11 27 34 44
52 17 18 29 35 26 38 -3 3 2 5 11 5 10 0 17 4 17 10 0 5 47 58 105 117 170
176 215 225 215 235 0 5 5 6 10 3 6 -3 10 -1 10 4 0 6 14 24 31 41 18 16 28
30 23 30 -5 0 -1 5 9 11 14 8 16 14 6 25 -14 17 -30 17 -46 0z"/>
<path d="M7672 8779 c-24 -9 -53 -34 -52 -44 0 -3 -1 -8 -2 -12 -4 -21 -3 -91
2 -90 3 1 16 -5 29 -12 19 -10 32 -11 62 -2 78 24 93 121 23 154 -19 10 -36
17 -37 16 -1 0 -12 -4 -25 -10z"/>
<path d="M4969 8734 c-31 -16 -42 -62 -22 -90 7 -10 13 -14 13 -10 0 4 8 0 17
-10 12 -11 18 -13 21 -5 3 8 9 6 19 -6 8 -10 12 -12 8 -5 -3 6 0 12 7 12 10 0
10 2 -1 9 -10 7 -10 10 -1 13 20 6 19 71 0 88 -22 20 -30 21 -61 4z"/>
<path d="M5130 8731 c-29 -55 -12 -93 40 -89 54 4 70 67 25 100 -19 14 -54 8
-65 -11z"/>
<path d="M5330 8738 c0 -6 -3 -8 -7 -5 -3 4 -12 -2 -19 -12 -11 -15 -11 -26
-3 -50 6 -17 15 -31 20 -31 4 0 18 -10 30 -22 20 -21 21 -21 15 -3 -5 18 -5
18 7 4 10 -13 15 -14 24 -4 9 10 9 14 -3 19 -14 5 -14 8 0 27 12 17 13 27 4
43 -20 38 -68 62 -68 34z"/>
<path d="M5503 8727 c-41 -18 -32 -85 13 -106 15 -6 24 -7 24 -1 0 6 7 10 15
10 8 0 15 5 15 11 0 5 5 7 10 4 6 -3 10 1 10 9 0 9 6 16 13 16 6 0 4 5 -6 11
-9 6 -15 14 -12 18 14 23 -48 44 -82 28z"/>
<path d="M7075 8730 c-79 -30 -78 -141 1 -156 79 -15 106 17 95 109 -5 38 -55
63 -96 47z"/>
<path d="M4785 8706 c-25 -25 -25 -44 -2 -73 11 -16 53 -17 62 -3 4 6 11 8 16
5 5 -4 9 10 9 29 0 25 -6 39 -22 50 -30 21 -35 20 -63 -8z"/>
<path d="M5674 8696 c-3 -9 -10 -13 -15 -10 -13 8 -7 -55 6 -65 19 -14 58 -7
61 12 1 9 -2 17 -7 17 -5 0 -9 7 -9 16 0 8 -4 12 -10 9 -5 -3 -7 0 -4 8 3 8 1
18 -5 22 -6 3 -14 -1 -17 -9z"/>
<path d="M4633 8687 c-15 -7 -20 -18 -20 -42 1 -19 5 -31 9 -29 4 3 8 1 8 -5
0 -5 12 -8 26 -5 21 4 25 2 20 -11 -3 -9 -2 -13 4 -10 6 3 10 15 10 25 0 10 8
24 18 29 10 6 12 11 4 11 -7 0 -11 3 -8 8 7 11 -17 39 -34 39 -9 0 -25 -5 -37
-10z"/>
<path d="M4478 8645 c-6 -14 -15 -22 -20 -19 -5 4 -4 -3 4 -15 14 -23 62 -29
74 -9 12 20 13 58 1 59 -7 0 -20 2 -30 4 -11 2 -22 -5 -29 -20z"/>
<path d="M5730 8414 c-135 -135 -254 -255 -264 -265 -18 -17 -37 -24 -59 -20
-5 1 -48 4 -95 6 -48 2 -89 5 -92 6 -3 1 -8 1 -11 1 -9 -1 -102 -2 -119 -1
-87 3 -405 -13 -415 -21 -7 -6 -20 -8 -29 -4 -9 3 -16 2 -16 -3 0 -6 -13 -9
-30 -8 -17 1 -31 -4 -34 -12 -4 -10 -10 -11 -25 -3 -11 6 -22 6 -25 1 -5 -7
-36 -16 -96 -27 -8 -1 -26 -5 -40 -9 -14 -3 -32 -8 -40 -10 -8 -2 -16 -4 -17
-5 -4 -3 -12 -5 -60 -14 -24 -4 -43 -11 -43 -14 0 -4 -11 -8 -24 -8 -14 -1
-38 -8 -53 -16 -16 -8 -37 -14 -46 -12 -9 1 -17 -2 -17 -7 0 -6 -5 -7 -10 -4
-5 3 -10 2 -10 -3 0 -6 -6 -10 -12 -9 -32 1 -49 -4 -43 -12 3 -6 -4 -8 -15 -6
-11 2 -20 -1 -20 -7 0 -6 -3 -9 -6 -5 -3 3 -21 -3 -40 -14 -19 -10 -41 -19
-48 -19 -7 0 -19 -7 -26 -15 -7 -8 -16 -12 -21 -9 -5 3 -21 -3 -37 -14 -15
-11 -37 -23 -50 -26 -12 -4 -20 -11 -18 -15 3 -4 -5 -8 -17 -8 -12 -1 -23 -7
-25 -13 -2 -5 -9 -10 -16 -10 -7 0 -23 -9 -35 -19 -13 -11 -28 -22 -34 -24 -9
-3 -8 -12 3 -33 8 -16 16 -33 19 -38 2 -5 -1 -6 -7 -2 -7 4 -12 2 -12 -4 0 -6
-5 -8 -12 -4 -6 4 -8 3 -5 -3 4 -6 0 -19 -8 -29 -12 -15 -16 -16 -24 -5 -7 11
-9 11 -14 0 -3 -8 -6 -3 -6 11 -1 20 -3 22 -11 10 -5 -8 -10 -10 -10 -5 0 6
-26 26 -57 45 -32 19 -81 57 -110 85 -28 27 -61 56 -72 64 -11 8 -19 17 -18
21 1 4 -25 34 -59 68 -34 34 -59 62 -56 62 3 0 -7 11 -22 25 -15 14 -32 25
-38 25 -6 0 -9 3 -5 6 3 3 -4 15 -15 26 -22 22 -28 20 -31 -11 -2 -31 -17 -26
-17 7 0 15 -7 36 -15 46 -8 10 -12 22 -10 26 4 7 -38 31 -64 36 -28 5 -87 -27
-109 -61 -21 -33 -28 -95 -10 -95 4 0 8 -7 8 -15 0 -8 5 -15 11 -15 5 0 7 -4
4 -10 -3 -5 2 -10 12 -10 14 0 15 -2 4 -9 -11 -7 -9 -10 8 -16 12 -3 19 -11
16 -16 -4 -5 1 -9 9 -9 10 0 16 -9 16 -22 0 -15 3 -19 8 -11 6 9 11 6 21 -8 9
-16 9 -19 0 -14 -8 6 -10 4 -5 -4 5 -7 14 -10 22 -7 8 3 13 2 13 -2 -3 -19 2
-23 16 -12 12 10 14 8 10 -9 -2 -14 1 -18 11 -14 7 3 11 9 8 14 -3 5 2 9 11 9
10 0 13 5 9 12 -4 7 -3 8 4 4 7 -4 12 -2 12 5 0 6 8 1 19 -12 10 -13 16 -29
14 -36 -3 -8 2 -13 13 -13 16 0 17 -2 4 -10 -13 -8 -12 -10 3 -10 10 0 20 -7
23 -15 4 -8 10 -13 14 -10 10 6 22 -24 14 -36 -3 -5 0 -8 7 -7 7 2 13 -1 14
-7 0 -5 6 -20 13 -31 6 -12 8 -25 4 -29 -4 -5 -1 -5 6 -1 8 5 12 0 12 -14 0
-12 5 -18 10 -15 9 6 11 1 14 -32 1 -7 9 -21 18 -32 9 -11 14 -22 11 -25 -4
-3 1 -6 10 -6 11 0 17 -8 17 -22 0 -21 0 -21 -16 -2 -8 10 -12 13 -9 6 6 -11
3 -12 -14 -3 -11 7 -21 14 -21 17 0 3 5 2 12 -2 6 -4 8 -3 5 3 -4 6 -18 9 -32
8 -16 -2 -25 2 -25 11 0 7 -6 11 -14 8 -7 -3 -16 2 -20 11 -3 9 -10 13 -16 10
-5 -3 -10 1 -10 10 0 9 -4 14 -9 10 -5 -3 -12 4 -16 15 -3 11 -13 20 -21 20
-8 0 -13 4 -12 9 2 5 -14 25 -35 45 -21 20 -36 36 -32 36 3 0 0 6 -7 14 -7 8
-16 12 -20 9 -5 -2 -8 1 -8 7 0 6 -15 26 -34 45 -19 18 -31 36 -28 39 3 3 0 6
-6 6 -9 0 -112 96 -112 105 0 9 -58 62 -75 70 -26 11 -85 13 -85 3 0 -4 -5 -8
-11 -8 -14 0 -53 -49 -56 -71 -2 -10 1 -29 7 -43 9 -24 95 -122 179 -203 27
-26 41 -48 38 -57 -4 -10 -1 -13 7 -10 7 3 19 -3 27 -13 13 -16 12 -17 -4 -4
-15 12 -17 12 -12 -2 4 -8 16 -17 27 -20 11 -3 17 -10 14 -15 -3 -5 2 -16 12
-23 15 -13 16 -12 4 3 -11 13 -11 18 0 24 7 4 10 3 5 -1 -4 -5 1 -17 10 -28
10 -11 12 -17 6 -13 -7 4 -13 2 -13 -3 0 -6 4 -11 10 -11 5 0 14 -10 21 -21 9
-17 8 -20 -3 -14 -7 4 -7 1 2 -7 9 -7 14 -21 12 -32 -2 -10 0 -16 5 -13 12 8
11 -87 -1 -95 -7 -5 -7 -8 -1 -8 13 0 19 -45 13 -93 -1 -8 -6 -14 -12 -15 -6
-1 -23 -3 -39 -6 -15 -2 -25 0 -21 5 3 5 -2 9 -10 9 -9 0 -16 9 -16 20 0 11
-4 20 -8 20 -5 0 -9 7 -9 15 0 8 4 12 9 9 4 -3 8 -1 8 5 0 5 -5 11 -12 13 -7
3 -2 13 13 27 l24 23 -25 -6 c-24 -6 -24 -6 3 9 16 9 25 21 21 27 -4 7 -3 8 5
4 9 -6 9 -11 1 -21 -7 -8 -7 -16 -2 -19 6 -3 12 3 15 14 4 14 -2 26 -19 36
-13 9 -24 26 -24 37 0 11 -3 18 -6 14 -4 -3 -13 1 -21 9 -9 8 -22 13 -29 10
-8 -3 -11 0 -8 9 3 8 -4 20 -15 27 -12 7 -21 19 -21 27 0 8 -3 12 -6 8 -8 -7
-34 17 -34 32 0 5 -9 13 -20 16 -11 3 -20 10 -20 14 0 13 -169 181 -183 183
-43 5 -68 4 -73 -4 -3 -4 -10 -6 -15 -3 -9 6 -10 5 -14 -35 -3 -28 20 -80 35
-80 6 0 9 -3 8 -7 -2 -8 76 -93 86 -93 9 0 72 -64 75 -75 1 -5 11 -20 21 -32
11 -13 17 -23 13 -23 -4 0 -2 -5 4 -11 7 -7 8 -20 3 -33 -8 -23 15 -63 41 -68
17 -4 39 -24 39 -35 0 -5 8 -16 18 -25 9 -9 28 -30 42 -47 14 -17 31 -31 38
-31 6 0 12 -4 12 -9 0 -19 73 -33 106 -21 17 7 24 6 24 -3 0 -8 4 -7 10 3 6
10 10 11 10 3 0 -7 9 -13 20 -13 11 0 20 -6 20 -12 0 -10 3 -9 9 1 5 7 11 9
14 4 4 -5 25 -10 47 -11 23 -1 47 -8 55 -15 7 -8 27 -20 44 -27 17 -7 31 -17
31 -23 0 -6 3 -7 6 -4 4 4 17 -6 30 -21 21 -23 22 -28 9 -41 -14 -14 -58 -24
-50 -11 2 4 -3 7 -11 7 -9 0 -13 -6 -9 -16 5 -13 4 -14 -6 -3 -7 6 -17 12 -22
12 -4 0 -5 -6 -1 -12 5 -10 4 -10 -6 -1 -8 8 -19 8 -31 2 -11 -5 -28 -14 -39
-19 -12 -6 -25 -8 -30 -5 -6 4 -10 1 -10 -5 0 -6 -5 -8 -10 -5 -6 4 -17 1 -25
-5 -10 -8 -15 -9 -15 -2 0 7 -10 6 -27 -3 -15 -8 -30 -12 -35 -9 -4 3 -8 2 -8
-3 0 -4 -36 -8 -80 -8 -44 0 -80 -4 -80 -9 0 -5 -3 -6 -7 -3 -9 9 -34 -13 -27
-24 3 -5 1 -8 -6 -7 -6 2 -18 -10 -28 -27 -9 -16 -22 -34 -28 -40 -25 -22
-119 -174 -116 -187 1 -5 -2 -8 -7 -8 -5 0 -15 -16 -22 -35 -7 -19 -17 -35
-21 -35 -4 0 -8 -3 -7 -7 2 -16 -14 -53 -22 -53 -5 0 -9 -4 -9 -9 0 -5 -13
-38 -29 -73 -16 -35 -33 -76 -37 -93 -4 -16 -10 -32 -13 -35 -7 -5 -59 -155
-67 -193 -9 -38 -12 -52 -14 -54 -2 -2 -4 -7 -5 -13 -1 -5 -3 -11 -4 -12 -2
-2 -4 -14 -7 -28 -2 -14 -6 -36 -9 -48 -4 -17 -2 -22 7 -17 7 4 5 0 -4 -8 -21
-16 -24 -32 -5 -21 9 6 9 5 0 -7 -15 -18 -23 -60 -38 -194 -2 -22 -7 -60 -11
-85 -8 -53 -12 -510 -4 -510 3 0 5 -17 5 -38 0 -20 1 -41 4 -46 2 -6 6 -26 7
-45 8 -98 18 -157 28 -163 7 -5 6 -8 -4 -8 -9 0 -11 -3 -5 -8 6 -4 11 -16 12
-27 2 -22 10 -60 13 -60 1 0 3 -9 5 -20 4 -21 12 -57 15 -65 1 -3 2 -9 1 -14
-1 -4 2 -13 7 -20 4 -6 8 -18 7 -26 0 -8 3 -17 7 -20 4 -3 10 -24 14 -45 3
-22 10 -45 15 -51 5 -6 6 -14 2 -18 -4 -4 -2 -10 5 -15 6 -4 13 -19 14 -34 1
-15 6 -27 10 -27 4 0 8 -9 8 -20 0 -11 4 -20 8 -20 4 0 8 -10 9 -22 1 -11 8
-25 14 -29 15 -9 23 -49 9 -49 -6 0 -10 -7 -10 -15 0 -8 -4 -15 -10 -15 -11 0
-1 -30 16 -47 8 -9 17 -9 36 1 19 10 26 10 35 0 7 -6 9 -15 6 -18 -4 -3 -1 -6
5 -6 7 0 12 -3 11 -7 -2 -15 13 -53 20 -49 3 2 7 -10 8 -27 1 -17 7 -34 14
-37 6 -4 11 -11 11 -16 1 -17 19 -59 33 -74 7 -8 14 -17 14 -20 0 -19 15 -39
25 -33 6 3 8 3 4 -2 -7 -7 17 -63 31 -75 3 -3 12 -17 20 -32 8 -15 19 -24 25
-21 6 3 8 3 4 -2 -7 -7 26 -59 59 -93 7 -7 13 -17 13 -20 0 -4 11 -19 24 -33
27 -30 51 -71 48 -82 -1 -5 2 -6 8 -2 5 3 10 2 10 -3 0 -5 15 -25 33 -44 17
-19 55 -61 82 -93 68 -79 165 -175 177 -175 5 0 6 -4 3 -10 -3 -5 -1 -10 5
-10 6 0 17 -6 24 -12 7 -7 32 -29 56 -48 23 -19 51 -43 61 -52 11 -10 24 -18
29 -18 6 0 10 -5 10 -10 0 -6 13 -18 30 -29 16 -10 27 -21 23 -24 -3 -4 1 -7
9 -7 20 0 50 -63 41 -86 -5 -13 -3 -15 7 -9 10 6 11 4 4 -6 -8 -13 -10 -18
-13 -38 0 -5 -40 -50 -88 -99 -49 -50 -164 -170 -258 -268 -215 -223 -336
-344 -347 -344 -4 0 -8 -3 -8 -8 0 -4 -29 -37 -65 -74 -36 -37 -65 -69 -65
-71 0 -9 -164 -167 -173 -167 -6 0 -8 -2 -5 -6 3 -3 -25 -36 -63 -74 -38 -38
-69 -71 -69 -74 0 -10 -71 -76 -81 -76 -5 0 -9 -3 -9 -7 0 -5 -13 -17 -29 -28
-16 -10 -28 -22 -26 -25 2 -3 0 -12 -5 -20 -5 -8 -3 -19 6 -28 12 -12 17 -12
31 0 14 11 16 11 9 0 -7 -11 -4 -12 10 -4 32 17 104 88 97 95 -3 4 -1 7 4 7 6
0 25 19 42 42 17 23 31 39 31 36 0 -4 17 10 38 30 21 20 37 40 35 44 -2 5 1 8
6 8 6 0 28 18 48 40 21 22 191 195 379 385 188 189 338 348 335 351 -3 4 -1 4
6 0 6 -3 14 -2 18 4 4 6 11 7 17 4 6 -4 8 -2 4 4 -3 6 7 18 23 28 17 10 28 21
25 26 -3 4 2 8 11 8 9 0 14 4 10 9 -3 5 4 12 15 16 11 4 17 11 14 17 -5 8 -1
9 10 5 10 -4 15 -3 11 3 -3 6 1 10 10 10 10 0 13 5 9 12 -5 8 -2 9 10 5 11 -5
15 -3 10 5 -5 8 -2 9 9 5 9 -3 19 -1 23 5 4 6 3 8 -4 4 -6 -3 -14 -1 -18 6 -4
7 -4 10 1 6 4 -4 15 -2 23 5 13 9 14 9 8 0 -12 -21 8 -15 34 9 20 18 23 19 17
4 -5 -12 -3 -16 5 -13 7 2 12 10 10 16 -1 7 2 10 7 7 5 -4 12 -3 14 1 3 5 26
7 50 5 39 -3 45 -7 42 -24 -4 -17 -2 -18 12 -6 14 11 15 11 11 -2 -3 -8 -1
-23 3 -32 6 -10 5 -19 -2 -24 -8 -4 -7 -9 2 -15 11 -7 11 -9 1 -9 -7 0 -10 -4
-7 -10 3 -5 1 -10 -6 -10 -8 0 -7 -5 2 -17 8 -9 9 -14 3 -10 -6 3 -20 -1 -30
-9 -19 -15 -19 -15 1 -10 20 6 20 6 1 -9 -11 -8 -14 -15 -7 -15 7 0 9 -5 6
-10 -4 -6 -10 -8 -15 -5 -5 3 -12 -6 -16 -20 -3 -13 -10 -22 -15 -19 -5 3 -9
0 -9 -6 0 -6 -5 -8 -12 -4 -7 4 -8 3 -4 -4 4 -6 -14 -33 -41 -60 -80 -82 -437
-453 -498 -517 -31 -33 -97 -101 -146 -152 -49 -50 -89 -95 -89 -100 0 -12 20
-40 20 -28 0 6 5 3 10 -5 8 -12 39 15 156 135 349 359 543 552 548 547 3 -3 6
0 6 7 0 7 4 9 10 6 5 -3 7 0 5 8 -3 7 5 19 19 27 14 7 24 16 23 19 -4 12 176
190 186 184 6 -3 8 -2 5 3 -3 5 0 15 8 22 8 7 14 10 14 6 0 -4 9 5 21 20 11
14 27 26 35 26 8 0 13 4 10 9 -9 13 14 19 57 13 20 -2 37 -9 37 -15 0 -8 4 -7
12 1 8 8 20 7 46 -3 32 -14 33 -14 21 2 -13 15 -11 15 19 -1 17 -9 32 -21 32
-27 0 -6 5 -7 11 -3 8 4 9 -1 4 -16 -5 -17 -4 -21 6 -15 9 6 11 3 6 -8 -3 -10
-2 -17 4 -17 6 0 7 -4 4 -10 -3 -5 -1 -10 4 -10 6 0 11 -8 11 -17 0 -15 2 -16
10 -3 8 13 10 12 10 -4 0 -12 5 -16 15 -12 11 4 15 -2 16 -22 4 -109 -5 -96
167 -267 56 -56 102 -108 102 -114 0 -7 5 -9 10 -6 6 3 10 2 10 -2 0 -5 27
-38 60 -73 48 -52 63 -62 70 -50 6 9 5 17 -3 22 -7 4 -7 8 -2 8 7 0 11 63 13
173 1 94 3 178 4 185 2 15 18 16 18 1 0 -8 4 -8 13 -2 20 16 229 5 260 -14 6
-4 7 -1 2 6 -6 10 -3 11 13 2 11 -6 36 -11 54 -11 19 0 40 -6 47 -12 9 -8 11
-8 8 -2 -4 7 0 14 8 18 9 3 15 0 15 -9 0 -7 4 -17 10 -20 6 -3 7 1 4 10 -5 11
-2 14 10 9 11 -4 22 0 30 11 8 12 20 16 30 12 11 -5 15 -3 10 5 -5 8 -2 9 9 5
10 -3 17 -2 17 3 0 6 9 10 19 10 11 0 23 4 26 10 3 6 15 10 25 10 14 0 4 -14
-37 -55 -31 -30 -60 -55 -64 -55 -4 0 -10 -8 -14 -18 -3 -11 -17 -24 -30 -30
-23 -11 -24 -14 -13 -34 7 -13 17 -26 22 -30 20 -14 73 24 135 97 46 55 114
126 141 148 16 14 29 17 49 11 14 -4 29 -7 34 -6 4 1 7 -2 7 -7 0 -6 9 -8 20
-6 11 2 18 0 15 -6 -4 -5 -1 -9 5 -9 6 0 8 -5 5 -10 -4 -6 -12 -7 -18 -3 -9 5
-9 3 0 -8 10 -12 10 -18 1 -27 -14 -14 -14 -14 82 -12 119 3 144 5 158 13 7 5
12 3 12 -3 0 -6 5 -8 13 -3 14 9 28 11 82 15 22 2 42 6 45 9 3 4 19 9 35 10
17 2 33 8 37 14 5 6 8 4 8 -5 0 -11 3 -12 8 -3 7 12 30 18 107 29 21 4 49 13
60 20 12 8 25 11 28 8 4 -4 12 -2 19 3 11 9 59 25 81 27 4 1 11 6 15 11 4 6
16 11 27 13 19 2 44 8 55 12 3 1 8 2 13 1 4 0 7 4 7 10 0 6 9 9 20 6 11 -3 18
-1 15 3 -3 4 9 13 25 19 17 5 30 7 30 3 0 -4 5 1 11 11 6 9 14 15 20 12 5 -4
9 -1 9 5 0 6 5 8 10 5 6 -3 10 -1 10 5 0 6 4 9 8 6 5 -3 18 3 30 14 11 11 27
21 34 22 7 2 37 27 66 56 28 29 52 50 52 46 0 -3 6 -1 14 5 15 13 46 5 46 -12
0 -6 3 -8 6 -4 4 3 14 -3 23 -14 16 -20 24 -21 600 -21 320 0 585 3 588 6 3 3
-50 59 -118 123 -67 65 -227 221 -353 346 l-231 229 28 16 c15 9 27 20 27 25
0 4 4 6 9 2 5 -3 12 4 16 15 4 11 10 18 15 15 5 -3 12 1 17 8 4 8 18 19 31 26
12 6 22 19 22 28 0 9 3 14 6 11 9 -10 148 140 189 205 11 18 27 39 35 47 13
13 102 147 157 235 104 167 212 458 262 705 6 30 14 66 16 80 8 38 15 81 20
123 3 21 7 42 9 45 16 27 26 424 12 547 -4 39 -8 84 -10 100 -4 35 -16 86 -24
100 -4 5 -7 16 -8 25 -4 28 -13 60 -20 72 -4 7 -3 8 4 4 7 -4 12 -3 12 3 0 5
-4 12 -8 15 -11 6 -8 31 8 73 6 18 11 35 10 39 -1 4 2 10 7 13 19 13 43 62 37
73 -4 7 -3 8 4 4 7 -4 14 3 18 19 3 13 9 23 14 20 4 -2 12 8 19 23 10 24 10
25 -3 9 -10 -14 -15 -15 -19 -5 -4 11 -6 11 -6 0 -1 -7 -6 -10 -13 -6 -7 4 -8
3 -4 -4 4 -7 3 -12 -2 -12 -13 0 -52 -36 -47 -44 3 -3 2 -4 -1 -1 -4 2 -15 0
-25 -5 -21 -12 -36 10 -33 48 0 12 -3 22 -7 22 -5 0 -8 3 -7 8 3 17 -16 42
-48 61 -22 13 -34 16 -34 8 0 -8 -3 -8 -9 2 -14 22 -51 3 -108 -54 -28 -29
-54 -50 -57 -47 -3 3 -6 0 -6 -6 0 -7 -5 -12 -11 -12 -5 0 -7 6 -3 13 5 7 1 6
-10 -3 -16 -13 -20 -12 -31 3 -6 9 -16 13 -20 9 -5 -4 -5 1 -2 11 4 11 1 20
-9 24 -13 5 -13 7 -2 14 10 7 11 9 0 9 -7 0 -11 4 -7 9 3 5 1 12 -5 16 -6 4
-8 11 -5 16 4 5 2 9 -3 9 -9 0 -20 43 -25 98 -1 12 -6 22 -10 22 -5 0 -6 4 -3
9 4 5 1 11 -5 13 -19 6 -15 99 5 113 9 7 16 17 16 24 0 6 4 11 9 11 4 0 24 24
44 53 19 28 56 75 82 102 26 28 79 84 117 125 71 76 374 388 783 805 123 127
225 231 225 232 0 1 29 32 65 68 61 63 81 103 53 106 -31 3 -45 -4 -77 -39
-18 -20 -146 -153 -285 -295 -138 -142 -252 -262 -254 -267 -2 -6 -10 -10 -18
-10 -8 0 -14 -4 -14 -8 0 -4 -73 -82 -162 -174 -203 -206 -347 -356 -417 -433
-32 -36 -56 -55 -59 -47 -3 10 -7 10 -20 0 -13 -11 -14 -10 -4 9 10 17 9 25
-3 37 -8 8 -15 19 -15 25 0 6 -3 11 -8 11 -4 0 -13 15 -21 33 -8 17 -36 65
-63 105 -26 40 -48 76 -48 81 0 5 -3 11 -8 13 -4 2 -37 41 -74 88 -67 86 -97
118 -133 146 -11 9 -13 12 -5 9 8 -4 2 4 -14 19 -16 14 -25 26 -21 26 11 0
-204 212 -263 260 -71 57 -80 64 -114 88 -18 13 -68 50 -112 82 -43 32 -90 64
-105 71 -14 7 -44 25 -66 40 -59 39 -222 123 -301 154 -38 15 -73 30 -79 33
-5 4 -12 7 -15 8 -3 0 -16 5 -30 11 -14 6 -42 18 -62 26 -21 9 -38 14 -38 12
0 -3 -24 5 -52 16 -29 11 -54 20 -56 19 -1 -1 -26 5 -55 14 -28 8 -79 20 -112
26 -74 15 -74 15 -105 23 -31 8 -84 16 -170 25 l-65 7 50 47 c28 26 61 57 74
70 13 13 21 16 17 8 -4 -8 1 -5 10 8 9 12 21 22 27 22 13 0 43 36 69 82 12 21
28 38 35 38 7 0 13 4 13 10 0 15 133 145 145 142 5 -2 7 0 2 4 -4 4 7 22 24
40 36 37 36 68 -1 72 -21 2 -65 -37 -270 -244z m2110 -3691 c0 -3 -6 -3 -14 0
-14 6 -32 -21 -21 -31 3 -3 5 0 5 6 0 7 5 12 11 12 8 0 9 -4 0 -13 -6 -8 -7
-18 -3 -23 4 -4 -1 -2 -11 5 -28 22 -12 66 20 54 7 -3 13 -7 13 -10z m-2300
-2458 c0 -1 -10 -10 -22 -21 -14 -12 -18 -13 -10 -3 6 9 10 18 7 21 -3 2 2 5
10 5 8 0 15 -1 15 -2z"/>
<path d="M4341 8619 c-14 -11 -18 -19 -10 -19 12 0 12 -2 1 -9 -10 -6 -5 -11
19 -20 18 -6 33 -10 33 -9 1 2 6 12 13 24 23 41 -17 65 -56 33z"/>
<path d="M4211 8587 c-19 -29 -5 -56 29 -55 35 1 59 41 36 63 -18 19 -51 15
-65 -8z"/>
<path d="M7508 8592 c-25 -17 -292 -282 -283 -282 2 0 -16 -20 -41 -45 -24
-25 -44 -50 -44 -55 0 -6 -4 -9 -9 -8 -5 2 -8 0 -7 -3 1 -8 -86 -89 -96 -89
-4 0 -8 -7 -8 -15 0 -8 -4 -15 -9 -15 -18 0 -4 -35 19 -47 23 -12 50 -8 50 8
0 4 7 5 17 2 11 -4 14 -3 9 5 -4 7 -2 12 4 12 5 0 32 23 58 52 26 28 55 58 66
67 16 14 57 56 187 192 21 21 34 41 30 45 -3 4 -1 5 4 1 12 -6 85 65 104 100
29 57 -4 106 -51 75z"/>
<path d="M4054 8558 c-13 -21 -13 -61 0 -74 36 -36 99 14 78 61 -9 18 -19 25
-41 25 -16 0 -33 -5 -37 -12z"/>
<path d="M3896 8495 c-22 -20 -24 -26 -13 -49 14 -30 33 -36 65 -22 26 11 39
50 23 70 -21 25 -49 25 -75 1z"/>
<path d="M3753 8449 c-13 -4 -23 -12 -24 -16 0 -4 -2 -16 -4 -26 -4 -20 19
-46 38 -43 19 3 47 32 47 49 0 25 -33 46 -57 36z"/>
<path d="M5046 8451 c-3 -5 -14 -7 -25 -4 -26 7 -59 -43 -55 -82 2 -16 8 -31
14 -33 5 -2 8 -8 4 -13 -3 -5 4 -9 16 -9 14 0 19 -4 14 -12 -4 -7 1 -5 12 4
19 16 23 18 45 18 6 0 9 7 5 15 -3 8 -2 15 3 15 15 0 4 73 -13 82 -9 5 -14 13
-11 19 4 5 4 9 1 9 -3 0 -7 -4 -10 -9z"/>
<path d="M5321 8452 c-1 -7 -5 -11 -10 -8 -12 8 -41 -38 -41 -64 0 -22 26 -80
36 -80 3 0 2 4 -1 10 -3 6 1 7 9 4 9 -3 13 -10 10 -15 -3 -5 2 -6 10 -3 9 3
14 10 11 14 -3 4 2 11 11 14 10 4 13 2 9 -7 -4 -6 1 -3 9 7 9 11 16 30 16 42
0 30 -21 75 -31 68 -5 -3 -9 0 -9 6 0 6 -4 9 -9 6 -5 -4 -12 0 -14 6 -4 10 -6
10 -6 0z"/>
<path d="M4679 8417 c-19 -14 -33 -52 -32 -84 2 -59 3 -60 26 -59 12 0 26 7
30 14 7 11 12 11 25 0 9 -7 14 -9 10 -4 -4 4 3 18 16 30 18 17 21 27 15 54 -4
19 -11 38 -16 43 -16 16 -57 19 -74 6z"/>
<path d="M3603 8397 c-27 -12 -38 -53 -21 -75 11 -13 11 -14 0 -8 -11 7 -12 4
-2 -13 9 -18 30 -21 30 -5 0 3 -5 2 -12 -2 -7 -5 -8 -3 -3 5 5 9 10 10 18 2
14 -14 57 36 50 58 -12 32 -37 48 -60 38z"/>
<path d="M4392 8359 c-13 -5 -20 -13 -17 -19 3 -5 2 -10 -2 -10 -11 0 -43 -54
-43 -72 0 -10 3 -9 10 2 9 13 10 13 10 -1 0 -12 8 -14 30 -11 19 3 27 8 23 16
-4 6 1 5 10 -3 14 -11 20 -11 34 0 14 12 15 12 9 1 -7 -11 -4 -12 13 -3 15 9
19 16 12 29 -5 9 -14 30 -20 45 -6 15 -16 25 -21 22 -6 -3 -10 -1 -10 4 0 13
-7 13 -38 0z"/>
<path d="M5926 8331 c-20 -22 -20 -55 -1 -71 17 -14 87 -21 79 -9 -2 4 4 10
15 14 23 7 35 32 15 32 -7 0 -10 -5 -7 -10 3 -6 1 -7 -5 -3 -6 4 -9 13 -6 20
13 33 -64 56 -90 27z"/>
<path d="M3445 8300 c-19 -20 -31 -26 -36 -19 -4 8 -10 6 -16 -6 -5 -9 -13
-16 -16 -16 -22 3 -27 -2 -27 -31 0 -25 3 -29 10 -18 7 11 10 11 10 2 0 -10 3
-10 14 0 7 7 11 19 8 27 -3 9 -1 12 6 7 7 -4 12 -3 12 3 0 6 7 7 17 4 11 -4
14 -3 9 5 -5 9 3 11 28 6 23 -3 36 -1 36 6 0 6 4 9 9 5 19 -11 23 17 5 36 -23
26 -35 24 -69 -11z"/>
<path d="M3540 8306 c0 -2 7 -9 15 -16 9 -7 15 -8 15 -2 0 5 -7 12 -15 16 -8
3 -15 4 -15 2z"/>
<path d="M4125 8290 c-22 -8 -28 -35 -10 -50 7 -6 26 -9 42 -6 15 2 31 5 34 5
5 1 5 27 0 51 -1 3 -6 -2 -11 -10 -8 -13 -10 -13 -10 1 0 17 -14 20 -45 9z"/>
<path d="M3100 8272 c-8 -4 -16 -15 -18 -25 -4 -21 33 -88 54 -100 8 -4 14
-12 14 -18 0 -11 9 -22 57 -74 18 -19 31 -35 28 -35 -2 0 25 -29 61 -65 36
-36 72 -65 79 -65 7 0 19 -10 28 -22 12 -19 17 -21 29 -10 11 11 10 12 -7 6
-18 -6 -18 -5 3 15 l22 22 -21 41 c-11 22 -32 52 -45 65 -13 13 -24 28 -24 33
0 6 -7 10 -15 10 -8 0 -15 4 -15 10 0 5 -18 29 -40 51 -22 23 -40 43 -40 45 0
7 -122 124 -128 123 -4 0 -14 -3 -22 -7z"/>
<path d="M6186 8263 c-4 -9 -13 -13 -23 -9 -14 6 -14 3 3 -15 10 -12 13 -19 6
-15 -11 7 -12 4 -3 -13 24 -44 67 -47 108 -5 17 16 17 27 1 18 -8 -5 -8 -1 2
12 8 10 10 16 6 12 -5 -4 -14 -1 -20 7 -16 22 -73 27 -80 8z"/>
<path d="M3859 8237 c-35 -27 -9 -124 29 -109 11 4 13 1 7 -9 -4 -8 -5 -11 0
-7 4 4 15 2 24 -5 14 -11 15 -10 1 7 -14 18 -13 19 2 13 10 -3 17 -3 17 1 -3
19 2 33 10 28 5 -3 11 1 15 9 3 8 0 15 -6 15 -7 0 -7 5 1 14 9 11 10 20 1 35
-12 24 -74 29 -101 8z"/>
<path d="M7900 8232 c-8 -3 -23 -15 -33 -26 -47 -55 -95 -107 -163 -177 -40
-42 -70 -80 -66 -84 4 -3 2 -5 -4 -3 -10 3 -220 -203 -265 -261 -11 -13 -19
-21 -19 -17 0 10 -37 -30 -50 -54 -36 -66 57 -89 114 -28 17 18 29 36 28 41
-1 4 2 7 8 7 5 0 24 17 42 37 18 20 61 65 95 100 34 35 61 63 59 63 -1 0 74
76 166 170 148 149 168 173 164 196 -3 15 -7 28 -9 31 -8 7 -52 11 -67 5z"/>
<path d="M4960 8200 c-9 -6 -10 -10 -3 -10 6 0 15 5 18 10 8 12 4 12 -15 0z"/>
<path d="M5160 8190 c-6 -11 -8 -20 -6 -20 3 0 10 9 16 20 6 11 8 20 6 20 -3
0 -10 -9 -16 -20z"/>
<path d="M5215 8180 c3 -5 8 -10 11 -10 2 0 4 5 4 10 0 6 -5 10 -11 10 -5 0
-7 -4 -4 -10z"/>
<path d="M6433 8174 c-16 -42 2 -95 27 -79 5 3 10 2 10 -4 0 -7 9 -7 28 1 15
7 28 12 28 13 1 0 5 10 8 22 5 15 1 28 -13 42 -25 25 -79 28 -88 5z"/>
<path d="M8230 8132 c-26 -9 -62 -50 -54 -63 4 -7 3 -9 -3 -6 -10 6 -111 -93
-377 -366 -85 -88 -114 -124 -111 -139 5 -23 15 -37 15 -21 0 6 8 9 18 6 12
-3 41 21 97 83 44 48 131 139 194 202 133 135 261 277 261 290 0 13 -21 20
-40 14z"/>
<path d="M6870 8019 c0 -6 -4 -8 -9 -5 -12 8 -41 -26 -46 -54 -6 -33 5 -70 21
-70 8 0 14 -4 14 -9 0 -12 39 -21 46 -10 3 5 10 7 15 4 5 -4 9 -2 9 3 0 5 9
12 21 15 12 3 18 10 15 16 -4 5 -2 12 3 16 5 3 8 15 6 26 -6 31 -34 71 -45 64
-6 -4 -10 -2 -10 2 0 5 -9 9 -20 10 -11 1 -20 -3 -20 -8z"/>
<path d="M8551 7888 c-21 -6 -54 -31 -85 -65 -28 -30 -86 -90 -128 -133 -42
-43 -74 -81 -71 -84 4 -3 -2 -6 -12 -6 -10 0 -16 -2 -13 -5 3 -3 -75 -87 -173
-186 -99 -100 -179 -186 -179 -192 0 -6 -3 -8 -6 -4 -7 6 -72 -59 -114 -114
-37 -49 -107 -119 -113 -113 -3 3 -11 -5 -18 -17 -9 -17 -9 -24 0 -27 6 -2 9
-8 5 -13 -8 -14 25 -23 40 -10 7 6 16 8 19 4 4 -3 7 2 7 11 0 10 6 16 13 14
10 -3 65 42 59 50 -1 1 1 3 6 4 4 1 16 13 27 27 11 14 63 70 116 123 54 53 94
99 91 102 -3 3 0 6 7 6 7 0 19 7 27 15 9 8 12 15 8 15 -4 0 6 10 22 22 16 13
39 34 50 48 12 14 65 69 118 124 53 54 105 109 116 123 11 14 20 23 20 20 0
-3 35 29 78 71 42 42 76 80 74 85 -1 5 2 6 8 2 5 -3 10 -1 10 4 0 6 6 11 13
11 20 0 37 48 27 76 -5 13 -11 24 -12 23 -2 0 -18 -5 -37 -11z"/>
<path d="M3030 7836 c0 -2 8 -10 18 -17 15 -13 16 -12 3 4 -13 16 -21 21 -21
13z"/>
<path d="M1894 7678 c-3 -5 -10 -6 -15 -3 -5 4 -9 1 -9 -5 0 -6 -4 -9 -9 -6
-4 3 -13 -6 -20 -20 -24 -53 -7 -96 45 -114 29 -10 37 -9 87 5 21 6 25 10 15
16 -7 5 -8 9 -2 9 10 0 11 30 2 71 -9 39 -78 73 -94 47z"/>
<path d="M2746 7637 c3 -10 9 -15 12 -12 3 3 0 11 -7 18 -10 9 -11 8 -5 -6z"/>
<path d="M7560 7483 c-8 -3 -27 -17 -42 -31 -22 -20 -27 -32 -23 -60 5 -38 26
-68 50 -70 26 -4 94 -2 95 2 0 1 6 19 14 40 18 52 5 89 -39 110 -18 9 -35 16
-37 15 -1 0 -10 -3 -18 -6z"/>
<path d="M2080 7411 c-29 -24 -34 -70 -13 -111 10 -19 24 -34 31 -32 7 1 12
-3 12 -9 0 -10 40 -7 73 6 45 18 50 101 8 139 -26 24 -87 28 -111 7z"/>
<path d="M2873 7387 c0 -8 6 -14 14 -14 9 0 10 4 2 14 -6 7 -12 13 -14 13 -1
0 -2 -6 -2 -13z"/>
<path d="M2885 7350 c-4 -6 -12 -7 -18 -4 -7 4 -8 3 -4 -1 13 -15 34 -14 34 1
0 17 -4 18 -12 4z"/>
<path d="M8825 7286 c-33 -15 -112 -95 -107 -109 1 -4 -1 -6 -6 -3 -11 7 -95
-82 -110 -118 -23 -52 30 -63 58 -11 7 13 17 22 22 19 4 -3 8 -1 8 4 0 5 41
51 90 101 51 52 90 101 90 112 0 22 -5 23 -45 5z"/>
<path d="M2477 7240 c-23 -22 -28 -51 -13 -72 12 -17 56 -21 56 -6 0 4 7 8 15
8 8 0 15 3 16 8 0 4 2 14 4 23 7 39 -48 67 -78 39z"/>
<path d="M8880 7180 c-8 -5 -15 -15 -15 -22 -1 -7 -7 -12 -15 -10 -10 1 -8 -3
4 -13 15 -11 17 -18 9 -26 -8 -8 -16 -4 -27 17 -12 21 -16 24 -14 9 2 -15 -3
-20 -18 -19 -17 1 -20 -4 -16 -23 3 -17 1 -22 -10 -18 -11 4 -14 -1 -12 -17 4
-34 4 -35 15 -10 5 13 13 21 18 18 4 -3 7 5 6 18 -2 17 2 23 13 22 10 -2 17
-9 17 -17 0 -15 -27 -48 -36 -43 -3 2 -13 -10 -23 -27 -9 -16 -24 -29 -32 -29
-8 0 -13 -3 -11 -7 5 -10 -30 -43 -37 -35 -3 3 -6 -7 -6 -22 0 -32 23 -44 45
-23 8 9 25 24 37 34 31 24 52 68 42 85 -6 10 -4 10 9 -1 15 -12 17 -12 11 4
-5 13 -4 16 4 11 8 -5 10 -1 5 10 -3 10 -2 15 3 12 8 -6 35 15 34 27 -1 26 1
30 8 18 6 -9 14 -3 26 19 11 17 14 28 8 24 -12 -7 -35 28 -25 38 9 9 0 7 -17
-4z"/>
<path d="M2352 7094 c-38 -26 -25 -85 19 -88 32 -3 59 21 59 52 0 32 -29 55
-49 39 -12 -9 -13 -9 -7 1 10 16 5 15 -22 -4z"/>
<path d="M8815 7089 c-4 -6 -5 -12 -2 -15 2 -3 7 2 10 11 7 17 1 20 -8 4z"/>
<path d="M3200 6989 c0 -5 -5 -7 -12 -3 -7 4 -8 3 -4 -5 6 -9 11 -9 22 0 17
14 18 19 4 19 -5 0 -10 -5 -10 -11z"/>
<path d="M2238 6938 c-10 -10 -18 -20 -18 -23 0 -3 -1 -7 -1 -10 -5 -20 -2
-32 11 -42 23 -18 54 -15 78 7 24 22 29 36 10 24 -7 -5 -8 -3 -3 7 12 18 14
49 3 43 -4 -3 -8 -1 -8 4 0 16 -55 8 -72 -10z"/>
<path d="M8662 6941 c-11 -7 -11 -9 0 -14 9 -3 15 1 15 9 0 8 -1 14 -1 14 -1
0 -7 -4 -14 -9z"/>
<path d="M8526 6841 c-4 -7 -15 -10 -24 -6 -9 3 -14 3 -10 0 3 -3 -5 -18 -18
-32 -29 -31 -30 -57 -6 -102 16 -30 24 -34 59 -35 23 -1 39 2 37 6 -3 5 1 8 8
8 7 0 21 11 31 25 29 40 7 125 -33 125 -6 0 -8 5 -4 13 6 9 4 9 -8 -1 -13 -10
-17 -10 -20 0 -3 9 -6 9 -12 -1z"/>
<path d="M2141 6782 c-15 -16 -23 -56 -14 -78 7 -20 41 -17 70 6 14 11 22 20
18 20 -4 0 -2 6 4 14 13 15 5 45 -13 47 -6 1 -20 3 -31 4 -11 1 -27 -5 -34
-13z"/>
<path d="M8924 6732 c4 -7 2 -12 -4 -12 -5 0 -25 -14 -43 -31 -17 -17 -39 -36
-47 -43 -8 -6 -20 -20 -26 -31 -7 -11 -19 -19 -28 -19 -9 1 -16 -2 -16 -8 0
-5 -4 -7 -8 -4 -5 3 -26 -12 -48 -34 -54 -52 -95 -100 -87 -100 4 0 -1 -6 -11
-13 -24 -18 -18 -61 9 -65 19 -3 37 11 127 94 14 13 31 24 38 24 6 0 8 5 5 10
-3 6 -2 10 4 10 9 0 25 38 26 64 0 5 9 12 20 17 11 4 17 8 13 8 -4 1 12 20 36
44 47 46 64 81 45 93 -8 4 -9 3 -5 -4z"/>
<path d="M2080 6633 c-21 -7 -40 -33 -40 -56 0 -22 23 -47 42 -47 22 0 60 40
54 57 -3 8 -6 22 -6 32 0 17 -22 23 -50 14z"/>
<path d="M8277 6500 c-22 -21 -36 -44 -32 -49 3 -7 0 -8 -10 -5 -11 5 -14 2
-9 -10 5 -12 10 -13 25 -5 11 5 17 14 14 19 -3 6 0 8 7 5 7 -3 22 8 33 25 11
16 23 30 28 30 4 0 7 7 7 15 0 25 -23 16 -63 -25z"/>
<path d="M1998 6482 c-10 -2 -18 -10 -18 -18 0 -8 -4 -14 -8 -14 -14 0 -12
-51 3 -67 29 -29 94 5 95 50 0 9 -5 17 -11 17 -5 0 -7 5 -4 10 3 6 -3 10 -14
10 -10 0 -21 4 -23 8 -1 4 -11 6 -20 4z"/>
<path d="M1926 6309 c-29 -23 -34 -62 -12 -85 17 -16 42 -18 51 -4 4 6 10 8
15 5 8 -5 22 24 25 50 2 14 -15 34 -36 45 -12 7 -24 4 -43 -11z"/>
<path d="M8408 6278 c-14 -13 -30 -32 -35 -43 -12 -23 -6 -78 8 -83 5 -2 7 -7
5 -11 -6 -10 64 -7 87 4 36 15 58 107 32 135 -22 24 -68 23 -97 -2z"/>
<path d="M8850 6259 c0 -5 -4 -8 -9 -5 -11 7 -26 -12 -33 -41 -4 -15 2 -29 18
-44 14 -13 24 -17 24 -10 0 7 5 9 11 6 5 -4 19 1 30 11 25 23 25 70 0 84 -25
13 -41 13 -41 -1z"/>
<path d="M1864 6138 c-3 -10 -10 -16 -15 -13 -5 3 -7 0 -5 -7 3 -7 7 -26 11
-41 5 -26 9 -28 42 -24 38 6 53 20 53 53 0 43 -73 70 -86 32z"/>
<path d="M8865 6075 c-17 -13 -14 -61 4 -57 7 1 10 -2 7 -6 -3 -5 4 -18 16
-28 14 -12 18 -14 13 -4 -8 13 -6 13 7 2 15 -12 19 -9 32 17 20 38 20 43 -2
69 -19 22 -55 25 -77 7z"/>
<path d="M1833 5992 c-22 -14 -32 -57 -19 -83 12 -25 37 -31 72 -16 21 9 31
61 16 84 -10 15 -54 25 -69 15z"/>
<path d="M8443 5958 c-6 -24 -8 -47 -4 -53 5 -5 11 -25 14 -43 5 -25 4 -31 -6
-26 -6 4 -5 -1 4 -12 16 -19 24 -45 35 -114 15 -106 24 -182 27 -235 1 -33 5
-65 9 -70 3 -6 2 -19 -2 -29 -3 -11 -4 -36 0 -57 8 -43 7 -70 -4 -87 -4 -7 -2
-12 5 -12 8 0 8 -4 -1 -15 -7 -8 -8 -15 -3 -15 10 0 8 -58 -1 -68 -3 -2 -1
-15 5 -29 5 -13 6 -22 1 -20 -6 5 -11 -62 -12 -175 0 -20 -4 -39 -8 -42 -5 -3
-7 -23 -6 -45 1 -23 -1 -41 -5 -41 -5 0 -9 -38 -12 -112 0 -10 -5 -20 -10 -23
-5 -4 -7 -10 -4 -15 3 -4 -2 -39 -11 -77 -9 -37 -18 -79 -20 -93 -3 -14 -8
-34 -11 -45 -4 -11 -8 -26 -9 -33 -5 -26 -38 -127 -43 -132 -3 -3 -6 -9 -6
-15 -1 -23 -17 -75 -24 -75 -4 0 -7 -8 -8 -19 -3 -38 -127 -318 -148 -333 -5
-4 -6 -8 -1 -8 5 0 2 -8 -6 -17 -8 -10 -30 -47 -49 -83 -19 -36 -39 -71 -46
-78 -7 -8 -11 -17 -8 -22 3 -4 -2 -10 -10 -14 -8 -3 -15 -11 -15 -18 0 -7 -11
-25 -24 -40 -14 -14 -22 -29 -19 -32 4 -3 -2 -6 -12 -6 -10 0 -16 -3 -12 -6 5
-5 -20 -38 -61 -80 -7 -8 -11 -14 -7 -14 3 0 1 -8 -4 -18 -12 -23 -1 -41 28
-47 14 -2 19 0 15 7 -5 7 -2 9 8 6 9 -4 21 4 31 20 8 15 24 37 34 49 10 11 25
31 33 43 8 12 20 28 25 34 14 16 65 95 65 101 0 3 9 14 20 25 12 12 18 25 15
30 -4 6 -2 10 2 10 5 0 26 30 48 68 21 37 43 70 48 73 5 3 9 10 9 15 1 5 7 23
14 39 7 17 12 34 12 39 0 5 4 12 9 15 5 3 16 24 25 46 9 22 37 92 62 155 52
128 92 261 132 435 7 33 13 67 19 105 1 14 4 25 5 25 3 0 10 37 15 80 3 22 7
56 10 75 17 121 24 649 10 760 -3 25 -8 63 -10 85 -5 49 -32 182 -39 193 -3 5
-7 19 -9 33 -10 51 -36 99 -54 99 -11 0 -23 4 -29 10 -7 7 -14 -4 -21 -32z"/>
<path d="M1791 5822 c-6 -2 -9 -8 -5 -13 3 -5 1 -9 -3 -9 -5 0 -7 -16 -5 -35
4 -32 11 -38 38 -34 4 0 11 -5 15 -13 7 -10 9 -10 9 0 0 7 5 10 10 7 9 -6 14
8 11 28 0 4 4 7 10 7 5 0 7 5 4 10 -4 6 -1 18 7 27 9 12 10 15 0 9 -7 -4 -15
-1 -18 8 -6 15 -41 19 -73 8z"/>
<path d="M8957 5743 c-4 -3 -2 -12 4 -20 6 -7 8 -13 4 -13 -4 0 -2 -6 4 -14 9
-11 9 -16 0 -22 -8 -5 -9 -3 -4 6 5 9 4 11 -4 6 -9 -6 -9 -11 0 -23 12 -13 14
-13 24 1 7 9 15 13 18 9 4 -3 7 3 7 15 0 12 -5 22 -12 22 -6 0 -9 3 -5 6 3 4
0 13 -8 20 -15 16 -19 17 -28 7z"/>
<path d="M8450 5699 c0 -5 5 -7 10 -4 6 3 10 8 10 11 0 2 -4 4 -10 4 -5 0 -10
-5 -10 -11z"/>
<path d="M1769 5649 c-17 -17 -21 -84 -4 -84 6 0 16 -4 24 -9 10 -6 16 -5 19
2 2 7 7 10 11 7 5 -2 13 7 19 20 9 19 9 25 -1 25 -8 0 -9 3 -1 8 13 8 15 44 2
36 -4 -3 -8 -1 -8 3 0 15 -44 9 -61 -8z"/>
<path d="M1758 5476 c-21 -15 -24 -56 -6 -74 18 -18 68 -15 68 3 0 8 4 15 9
15 12 0 1 41 -15 58 -16 15 -34 15 -56 -2z"/>
<path d="M8960 5445 c0 -5 -3 -27 -6 -49 -4 -27 -2 -41 8 -47 10 -7 10 -9 -2
-9 -9 0 -4 -6 10 -14 16 -8 29 -9 37 -4 7 6 16 7 21 4 9 -5 22 24 22 50 0 16
-40 55 -51 49 -5 -4 -9 -1 -9 5 0 6 -4 9 -9 6 -5 -4 -12 0 -14 6 -3 7 -6 9 -7
3z"/>
<path d="M1742 5297 c-23 -49 -22 -56 8 -72 23 -12 35 -13 50 -5 11 6 21 14
21 18 6 32 5 52 -2 52 -5 0 -9 6 -9 13 0 24 -56 19 -68 -6z"/>
<path d="M8961 5236 c-9 -11 -9 -15 1 -19 9 -4 7 -6 -4 -6 -10 -1 -15 -8 -13
-18 2 -10 4 -28 4 -40 1 -21 15 -25 39 -9 9 5 10 12 3 20 -7 8 -4 16 10 24 11
7 17 17 14 21 -3 5 1 12 7 14 8 3 6 6 -4 6 -10 1 -18 6 -18 11 0 15 -26 12
-39 -4z"/>
<path d="M1735 5126 c-16 -24 -12 -50 12 -74 15 -16 72 -7 74 11 1 7 3 22 4
35 3 25 -27 52 -57 52 -10 0 -24 -11 -33 -24z"/>
<path d="M1743 4965 c-28 -31 -5 -95 34 -95 19 0 66 29 48 30 -5 0 -3 5 5 10
9 6 11 10 3 10 -7 0 -10 7 -7 15 15 37 -55 62 -83 30z"/>
<path d="M8940 4952 c-20 -23 -18 -85 3 -106 13 -14 20 -15 39 -5 13 7 29 15
37 19 29 13 30 45 4 78 -27 35 -59 40 -83 14z"/>
<path d="M1763 4802 c-23 -15 -26 -59 -5 -80 23 -23 37 -23 73 1 27 18 29 45
6 75 -10 13 -55 16 -74 4z"/>
<path d="M1784 4625 c-21 -21 -22 -27 -12 -50 6 -14 18 -25 27 -26 9 0 23 -2
31 -4 8 -1 23 7 32 20 13 18 14 26 5 45 -19 38 -54 44 -83 15z"/>
<path d="M1807 4456 c-11 -16 -13 -27 -7 -31 6 -4 8 -10 5 -15 -7 -11 8 -20
40 -26 17 -3 27 1 31 11 3 8 10 12 15 9 5 -3 9 5 9 18 -1 54 -65 78 -93 34z"/>
<path d="M1886 4322 c-4 -7 -15 -12 -26 -12 -23 0 -34 -43 -18 -70 13 -20 17
-22 43 -22 36 0 44 3 50 23 9 28 -2 69 -19 69 -8 0 -16 5 -18 12 -3 9 -6 9
-12 0z"/>
<path d="M8823 4317 c-30 -15 -64 -87 -42 -87 6 0 8 -4 4 -9 -7 -12 34 -41 58
-41 31 0 75 32 80 58 7 38 -3 62 -34 77 -32 17 -35 17 -66 2z"/>
<path d="M1931 4161 c-1 -7 -7 -11 -15 -8 -27 11 -23 -36 5 -65 15 -14 24 -29
21 -33 -4 -3 1 -3 11 1 9 3 14 10 11 15 -3 5 -1 9 5 9 5 0 7 10 5 23 -3 12 -6
28 -6 35 -1 6 -7 12 -14 12 -7 0 -15 6 -17 13 -4 9 -6 9 -6 -2z"/>
<path d="M8720 4010 c-13 -11 -20 -20 -15 -20 4 0 2 -7 -5 -15 -13 -16 -4 -79
10 -70 5 3 11 1 15 -5 16 -25 85 -1 85 29 0 6 5 11 11 11 8 0 9 4 0 13 -6 8
-8 17 -4 20 10 10 -38 57 -57 57 -9 0 -27 -9 -40 -20z"/>
<path d="M1971 3989 c-18 -50 9 -106 43 -87 16 9 17 7 11 -13 -4 -17 -3 -20 3
-10 8 11 12 10 21 -5 6 -11 11 -14 11 -7 0 6 -4 14 -9 17 -4 3 -7 17 -6 31 2
14 -1 25 -6 25 -6 0 -8 4 -5 8 6 10 -2 21 -31 46 -22 19 -23 18 -32 -5z"/>
<path d="M8650 3780 c0 -7 -6 -10 -13 -7 -6 2 -18 -2 -25 -9 -7 -8 -10 -14 -8
-14 3 0 1 -11 -4 -24 -5 -13 -6 -27 -2 -31 4 -4 7 -10 7 -14 0 -15 30 -38 44
-33 9 3 11 0 7 -9 -4 -8 -1 -6 7 4 9 10 17 17 19 15 3 -2 12 5 22 15 10 9 14
17 10 17 -3 0 -2 6 4 13 6 7 7 18 2 26 -4 8 -6 20 -4 26 3 7 -3 15 -13 18 -10
2 -26 8 -35 12 -12 4 -18 3 -18 -5z"/>
<path d="M1820 3609 c0 -5 -4 -7 -10 -4 -17 10 -24 -45 -8 -61 32 -32 95 14
64 47 -8 9 -7 10 4 5 8 -4 6 0 -4 8 -23 18 -46 21 -46 5z"/>
<path d="M8548 3599 c-29 -17 -41 -48 -26 -67 9 -11 10 -14 1 -8 -7 4 -13 4
-13 1 0 -10 30 -38 30 -28 0 4 4 2 8 -5 13 -20 75 27 79 60 6 45 -38 72 -79
47z"/>
<path d="M2149 3444 c-46 -47 -83 -90 -82 -95 2 -5 -1 -8 -5 -6 -9 2 -112
-104 -112 -116 0 -5 -4 -5 -10 -2 -5 3 -10 2 -10 -2 0 -5 -93 -103 -206 -218
-216 -220 -240 -248 -229 -265 14 -23 54 -9 99 35 26 25 51 45 56 45 6 0 10 4
10 9 0 14 128 140 135 133 4 -4 5 -2 3 5 -3 11 67 86 371 401 97 101 115 126
107 147 -12 31 -45 12 -127 -71z"/>
<path d="M2594 3393 c-58 -60 -159 -164 -225 -233 -65 -69 -202 -210 -304
-315 -194 -198 -214 -229 -152 -231 16 -1 35 5 43 13 8 8 14 11 14 6 1 -4 8 5
16 20 8 15 19 25 24 22 6 -3 7 0 4 8 -3 9 3 17 16 20 12 3 19 10 15 16 -6 10
8 16 28 12 5 -1 6 3 2 9 -3 6 1 17 9 26 9 8 16 13 16 9 0 -3 6 0 14 7 8 7 13
14 11 16 -7 7 59 71 68 65 6 -3 7 -1 4 4 -7 12 16 36 26 28 4 -3 5 -2 2 2 -5
6 6 19 187 204 212 218 333 352 333 367 1 19 -13 32 -33 32 -7 0 -60 -48 -118
-107z"/>
<path d="M1765 3480 c-4 -6 -10 -8 -14 -5 -5 2 -16 -2 -26 -9 -14 -10 -15 -15
-5 -21 9 -5 11 -4 6 3 -4 7 -1 12 8 12 9 0 16 -8 16 -19 0 -22 21 -33 41 -20
12 7 12 9 -1 9 -9 0 -11 3 -5 8 15 11 17 32 3 30 -7 -2 -12 3 -10 10 3 15 -4
16 -13 2z"/>
<path d="M8453 3432 c-27 -33 -30 -77 -5 -87 23 -10 52 -13 47 -5 -2 4 5 16
15 28 26 28 25 57 -2 76 -29 21 -29 20 -55 -12z"/>
<path d="M1707 3421 c5 -20 33 -19 33 2 0 6 -3 7 -7 4 -3 -4 -12 -2 -19 4 -9
8 -11 5 -7 -10z"/>
<path d="M8382 3292 c-33 -5 -54 -50 -37 -81 9 -18 14 -20 18 -10 3 8 6 9 6 3
1 -16 51 -4 51 12 0 8 5 14 11 14 6 0 9 7 5 15 -3 8 0 15 7 15 8 0 8 3 -2 9
-7 5 -11 13 -8 18 6 9 -11 11 -51 5z"/>
<path d="M8274 3149 c-13 -15 -19 -36 -19 -69 0 -46 1 -48 17 -33 10 9 18 13
18 9 0 -16 42 17 51 41 10 27 1 46 -31 63 -13 7 -23 4 -36 -11z"/>
<path d="M7855 3140 c-4 -6 -9 -9 -13 -7 -4 2 -15 -4 -24 -15 -10 -10 -15 -18
-12 -18 4 0 0 -7 -7 -16 -11 -14 -10 -18 6 -30 17 -13 20 -12 27 3 3 10 7 13
7 6 1 -12 11 -12 49 1 12 4 20 12 17 17 -4 5 -2 9 4 9 10 0 7 31 -4 50 -8 13
-42 13 -50 0z"/>
<path d="M2722 2992 c-173 -176 -556 -571 -660 -681 -40 -42 -149 -154 -243
-248 -173 -175 -192 -204 -140 -211 20 -3 48 21 154 130 202 208 594 610 795
814 100 103 182 189 182 193 0 4 11 14 25 21 13 7 23 16 21 19 -4 9 31 40 38
34 3 -4 6 1 6 10 0 10 4 17 10 17 21 0 3 45 -19 48 -18 3 -54 -28 -169 -146z"/>
<path d="M8217 3003 c-3 -3 -3 -12 0 -21 4 -10 2 -13 -5 -8 -8 5 -10 2 -6 -9
5 -13 9 -12 25 6 11 12 19 23 19 24 0 6 -29 13 -33 8z"/>
<path d="M8890 2799 c0 -5 -5 -7 -10 -4 -11 7 -160 -137 -160 -155 0 -5 -4
-10 -10 -10 -12 0 -85 -73 -82 -82 1 -5 -2 -7 -6 -5 -9 2 -143 -129 -180 -177
-12 -16 -22 -25 -22 -20 0 5 -4 4 -8 -3 -8 -13 -84 -100 -144 -166 -21 -23
-38 -45 -38 -50 0 -4 -4 -5 -10 -2 -5 3 -10 1 -10 -4 0 -15 27 -14 33 2 4 9 6
9 6 -1 1 -7 13 -1 29 15 15 15 26 31 25 35 -2 4 2 8 7 8 6 0 24 14 40 30 17
17 30 28 30 25 0 -5 78 73 108 108 4 4 40 39 79 76 40 37 71 70 70 72 -2 2 7
14 20 26 13 12 23 20 23 18 0 -3 9 4 20 15 11 11 20 25 20 31 0 5 5 7 10 4 6
-3 10 1 10 9 0 9 7 16 15 16 8 0 15 5 15 10 0 6 13 24 30 41 16 18 27 37 23
43 -3 6 -3 8 1 4 9 -7 82 61 79 74 -2 4 2 8 8 8 5 0 7 5 4 10 -8 13 -25 13
-25 -1z"/>
<path d="M2875 2694 c-22 -19 -39 -39 -37 -44 1 -6 -3 -10 -9 -10 -6 0 -16 -6
-22 -13 -7 -7 -31 -34 -54 -59 -24 -26 -43 -46 -43 -45 0 2 -53 -49 -117 -112
-65 -64 -117 -119 -115 -123 1 -5 -4 -8 -11 -8 -16 0 -16 -45 0 -61 34 -34 79
-12 160 77 34 38 96 105 137 148 42 44 76 83 76 88 0 4 7 8 15 8 8 0 15 4 15
10 0 5 23 32 51 60 28 27 48 54 44 59 -3 5 -1 12 5 16 17 10 -8 45 -33 45 -12
0 -40 -16 -62 -36z"/>
<path d="M3476 2611 c-4 -7 -5 -15 -2 -18 9 -9 19 4 14 18 -4 11 -6 11 -12 0z"/>
<path d="M3820 2505 c-7 -9 -8 -15 -2 -15 5 0 12 7 16 15 3 8 4 15 2 15 -2 0
-9 -7 -16 -15z"/>
<path d="M3988 2332 c-10 -2 -18 -8 -18 -14 0 -6 -3 -9 -6 -5 -7 7 -44 -29
-44 -44 0 -5 -5 -7 -10 -4 -6 3 -14 -5 -20 -19 -5 -14 -16 -26 -25 -26 -8 0
-15 -4 -15 -9 0 -12 -63 -76 -72 -74 -5 2 -8 -2 -8 -7 0 -14 -161 -176 -171
-173 -5 2 -5 -5 -2 -14 4 -11 3 -14 -5 -9 -7 4 -12 2 -12 -3 0 -6 -47 -59
-105 -117 -103 -105 -115 -125 -99 -168 3 -9 16 -16 27 -16 19 0 47 26 289
277 33 35 65 60 71 56 6 -4 7 -1 2 6 -4 8 1 22 14 35 11 11 37 40 58 63 129
142 156 173 148 173 -2 0 7 12 20 26 39 42 30 77 -17 66z"/>
<path d="M6977 2310 c-4 -16 0 -19 19 -18 25 2 28 7 16 23 -12 17 -30 15 -35
-5z"/>
<path d="M6224 1993 c3 -8 -1 -10 -12 -6 -14 5 -13 2 3 -14 13 -14 22 -16 27
-9 5 7 8 6 9 -4 0 -10 3 -8 8 5 11 27 4 41 -19 41 -12 0 -19 -5 -16 -13z"/>
<path d="M2139 1977 c-18 -13 -23 -71 -9 -98 29 -53 119 -10 120 57 0 41 -74
69 -111 41z"/>
<path d="M5779 1919 c-10 -6 -10 -9 -1 -9 6 0 12 -6 12 -14 0 -8 7 -17 16 -20
15 -6 15 -4 3 10 -13 16 -12 16 8 6 14 -8 24 -9 28 -2 3 6 -1 13 -9 16 -9 3
-14 9 -12 13 7 10 -28 11 -45 0z"/>
<path d="M3967 1767 c-56 -58 -213 -219 -348 -358 -135 -140 -277 -287 -315
-328 -38 -40 -98 -103 -134 -140 -82 -83 -104 -115 -87 -130 7 -5 21 -9 30 -7
18 2 207 193 207 209 0 4 7 7 15 7 8 0 15 4 15 9 0 11 23 35 653 682 79 82
107 117 105 133 -7 47 -38 29 -141 -77z"/>
<path d="M4345 1646 c-45 -19 -67 -71 -54 -126 6 -23 60 -60 87 -60 31 0 81
36 93 67 16 42 0 92 -35 114 -36 22 -50 23 -91 5z"/>
<path d="M3225 1581 c-13 -11 -15 -12 -10 -1 5 8 -12 -4 -38 -25 -26 -22 -47
-43 -47 -47 0 -4 -5 -8 -10 -8 -12 0 -59 -46 -84 -81 -32 -46 -15 -99 29 -94
40 5 50 11 84 55 20 25 49 59 67 75 39 37 70 95 52 95 -9 0 -9 3 -2 8 6 4 4
13 -7 23 -16 16 -18 16 -34 0z"/>
</g>
</svg>
